<?xml version="1.0" encoding="utf-8"?>
<svg width="2500px" height="1465px" viewBox="0 0 2500 1465" version="1.1" xmlns:xlink="http://www.w3.org/1999/xlink" xmlns="http://www.w3.org/2000/svg">
  <defs>
    <filter id="filter_1">
      <feColorMatrix in="SourceGraphic" type="matrix" values="0 0 0 0 1 0 0 0 0 1 0 0 0 0 1 0 0 0 1 0" color-interpolation-filters="sRGB" />
    </filter>
    <path d="M0 0L2500 0L2500 1465L0 1465L0 0Z" id="path_1" />
    <clipPath id="mask_1">
      <use xlink:href="#path_1" />
    </clipPath>
  </defs>
  <g id="awsLogo" filter="url(#filter_1)">
    <path d="M0 0L2500 0L2500 1465L0 1465L0 0Z" id="Background" fill="#FFFFFF" fill-opacity="0" fill-rule="evenodd" stroke="none" />
    <g clip-path="url(#mask_1)">
      <path d="M709.249 532.061C709.249 562.208 712.529 586.652 718.268 604.577C724.828 622.503 733.027 642.058 744.506 663.243C748.606 669.761 750.246 676.279 750.246 681.983C750.246 690.131 745.326 698.279 734.667 706.427L683.011 740.648C675.631 745.537 668.252 747.981 661.692 747.981C653.493 747.981 645.294 743.907 637.094 736.574C625.615 724.352 615.776 711.315 607.576 698.279C599.377 684.427 591.177 668.946 582.158 650.206C518.203 725.167 437.849 762.647 341.095 762.647C272.22 762.647 217.284 743.092 177.107 703.982C136.93 664.872 116.432 612.725 116.432 547.542C116.432 478.284 141.03 422.063 191.046 379.694C241.063 337.325 307.478 316.14 391.932 316.14C419.81 316.14 448.508 318.585 478.846 322.659C509.183 326.733 540.341 333.251 573.139 340.584L573.139 281.104C573.139 219.18 560.02 175.996 534.602 150.737C508.363 125.478 464.087 113.257 400.951 113.257C372.253 113.257 342.735 116.516 312.398 123.849C282.06 131.182 252.542 140.145 223.844 151.552C210.725 157.255 200.886 160.515 195.146 162.144C189.406 163.774 185.307 164.589 182.027 164.589C170.548 164.589 164.808 156.441 164.808 139.33L164.808 99.405C164.808 86.3683 166.448 76.5908 170.548 70.8872C174.648 65.1837 182.027 59.4801 193.506 53.7765C222.204 39.1102 256.642 26.8883 296.819 17.1108C336.996 6.51848 379.633 1.62971 424.729 1.62971C522.302 1.62971 593.637 23.6292 639.554 67.628C684.651 111.627 707.609 178.44 707.609 268.067L707.609 532.061L709.249 532.061ZM376.353 655.909C403.411 655.909 431.289 651.021 460.807 641.243C490.325 631.466 516.563 613.54 538.701 589.096C551.82 573.615 561.66 556.505 566.579 536.949C571.499 517.394 574.779 493.765 574.779 466.062L574.779 431.841C551 426.137 525.582 421.249 499.344 417.989C473.106 414.73 447.688 413.101 422.27 413.101C367.334 413.101 327.157 423.693 300.099 445.692C273.04 467.692 259.921 498.654 259.921 539.394C259.921 577.689 269.761 606.207 290.259 625.762C309.938 646.132 338.636 655.909 376.353 655.909L376.353 655.909ZM1034.77 743.907C1020.01 743.907 1010.17 741.463 1003.61 735.759C997.048 730.87 991.309 719.463 986.389 703.982L793.703 74.1463C788.783 57.8505 786.323 47.2581 786.323 41.5546C786.323 28.5179 792.883 21.1847 806.002 21.1847L886.356 21.1847C901.935 21.1847 912.594 23.6291 918.334 29.3327C924.894 34.2214 929.813 45.6285 934.733 61.1096L1072.48 600.503L1200.39 61.1096C1204.49 44.8138 1209.41 34.2214 1215.97 29.3327C1222.53 24.4439 1234.01 21.1847 1248.77 21.1847L1314.37 21.1847C1329.94 21.1847 1340.6 23.6291 1347.16 29.3327C1353.72 34.2214 1359.46 45.6286 1362.74 61.1096L1492.29 607.022L1634.14 61.1096C1639.06 44.8138 1644.8 34.2214 1650.54 29.3327C1657.1 24.4439 1667.76 21.1847 1682.52 21.1847L1758.77 21.1847C1771.89 21.1847 1779.27 27.7031 1779.27 41.5546C1779.27 45.6286 1778.45 49.7025 1777.63 54.5913C1776.81 59.48 1775.17 65.9984 1771.89 74.9611L1574.29 704.797C1569.37 721.093 1563.63 731.685 1557.07 736.574C1550.51 741.463 1539.85 744.722 1525.91 744.722L1455.4 744.722C1439.82 744.722 1429.16 742.278 1422.6 736.574C1416.04 730.87 1410.3 720.278 1407.02 703.982L1279.93 178.44L1153.66 703.167C1149.56 719.463 1144.64 730.056 1138.08 735.759C1131.52 741.463 1120.04 743.907 1105.28 743.907L1034.77 743.907ZM2088.39 765.907C2045.75 765.907 2003.12 761.018 1962.12 751.24C1921.12 741.463 1889.14 730.87 1867.83 718.649C1854.71 711.315 1845.69 703.167 1842.41 695.834C1839.13 688.501 1837.49 680.353 1837.49 673.02L1837.49 631.466C1837.49 614.355 1844.05 606.207 1856.35 606.207C1861.27 606.207 1866.19 607.022 1871.11 608.651C1876.03 610.281 1883.4 613.54 1891.6 616.799C1919.48 629.021 1949.82 638.799 1981.8 645.317C2014.6 651.835 2046.57 655.095 2079.37 655.095C2131.03 655.095 2171.2 646.132 2199.08 628.206C2226.96 610.281 2241.72 584.207 2241.72 550.801C2241.72 527.987 2234.34 509.246 2219.58 493.765C2204.82 478.284 2176.94 464.433 2136.77 451.396L2017.87 414.73C1958.02 395.99 1913.74 368.287 1886.68 331.621C1859.63 295.77 1845.69 255.845 1845.69 213.476C1845.69 179.255 1853.07 149.107 1867.83 123.034C1882.58 96.9605 1902.26 74.1463 1926.86 56.2208C1951.46 37.4805 1979.34 23.629 2012.14 13.8515C2044.93 4.07397 2079.37 0 2115.45 0C2133.49 0 2152.34 0.814794 2170.38 3.25918C2189.24 5.70356 2206.46 8.96274 2223.68 12.2219C2240.08 16.2959 2255.66 20.3699 2270.42 25.2586C2285.18 30.1474 2296.66 35.0361 2304.85 39.9249C2316.33 46.4433 2324.53 52.9616 2329.45 60.2948C2334.37 66.8131 2336.83 75.7758 2336.83 87.183L2336.83 125.478C2336.83 142.589 2330.27 151.552 2317.97 151.552C2311.41 151.552 2300.75 148.293 2286.82 141.774C2240.08 120.59 2187.6 109.997 2129.39 109.997C2082.65 109.997 2045.75 117.33 2020.33 132.811C1994.92 148.293 1981.8 171.922 1981.8 205.328C1981.8 228.142 1990 247.697 2006.4 263.178C2022.79 278.66 2053.13 294.141 2096.59 307.992L2213.02 344.658C2272.06 363.398 2314.69 389.472 2340.11 422.878C2365.53 456.285 2377.83 494.58 2377.83 536.949C2377.83 571.985 2370.45 603.762 2356.51 631.466C2341.75 659.169 2322.07 683.612 2296.66 703.167C2271.24 723.537 2240.9 738.204 2205.64 748.796C2168.74 760.203 2130.21 765.906 2088.39 765.906L2088.39 765.907Z" id="Shape" fill="#252F3E" fill-rule="evenodd" stroke="none" />
      <g id="Group" transform="translate(14.496094 913.3203)">
        <path d="M2228.86 248.575C1959.1 446.57 1567.17 551.679 1230.17 551.679C757.888 551.679 332.339 378.128 10.9218 89.6905C-14.4964 66.8762 8.46193 35.9141 38.7998 53.8395C386.455 254.279 815.284 375.683 1258.87 375.683C1558.15 375.683 1886.95 313.759 2189.5 186.651C2234.6 166.281 2273.14 215.984 2228.86 248.575L2228.86 248.575Z" id="Shape" fill="#FF9900" fill-rule="evenodd" stroke="none" />
        <path d="M2341.19 121.467C2306.76 77.4686 2113.25 100.283 2025.52 110.875C1999.28 114.134 1995.18 91.3201 2018.96 74.2095C2173.11 -33.3433 2426.47 -2.38123 2455.99 33.4698C2485.5 70.1355 2447.79 321.907 2303.48 442.496C2281.34 461.237 2260.02 451.459 2269.86 427.015C2302.66 346.351 2375.63 164.652 2341.19 121.467L2341.19 121.467Z" id="Shape" fill="#FF9900" fill-rule="evenodd" stroke="none" />
      </g>
    </g>
  </g>
</svg>