<?xml version="1.0" encoding="utf-8"?>
<svg width="1024px" height="1024px" viewBox="0 0 1024 1024" version="1.1" xmlns:xlink="http://www.w3.org/1999/xlink" xmlns="http://www.w3.org/2000/svg">
  <defs>
    <filter id="filter_1">
      <feColorMatrix in="SourceGraphic" type="matrix" values="0 0 0 0 1 0 0 0 0 1 0 0 0 0 1 0 0 0 1 0" color-interpolation-filters="sRGB" />
    </filter>
    <path d="M0 0L1024 0L1024 1024L0 1024L0 0Z" id="path_1" />
    <clipPath id="mask_1">
      <use xlink:href="#path_1" />
    </clipPath>
  </defs>
  <g id="nextJsLogo" filter="url(#filter_1)">
    <path d="M0 0L1024 0L1024 1024L0 1024L0 0Z" id="Background" fill="#FFFFFF" fill-opacity="0" fill-rule="evenodd" stroke="none" />
    <g clip-path="url(#mask_1)">
      <path d="M478.467 0.800806C476.265 1.00079 469.258 1.70072 462.952 2.20067C317.51 15.2994 181.277 93.6917 94.9928 214.18C46.9458 281.173 16.2158 357.166 4.6045 437.658C0.500489 465.755 0 474.055 0 512.151C0 550.247 0.500489 558.546 4.6045 586.644C32.4317 778.725 169.265 940.109 354.847 999.903C388.079 1010.6 423.113 1017.9 462.952 1022.3C478.467 1024 545.533 1024 561.048 1022.3C629.815 1014.7 688.072 997.703 745.528 968.406C754.337 963.907 756.038 962.707 754.837 961.707C754.036 961.107 716.5 910.812 671.456 850.018L589.576 739.529L486.976 587.843C430.52 504.452 384.075 436.258 383.675 436.258C383.274 436.158 382.874 503.552 382.674 585.844C382.373 729.93 382.273 735.729 380.472 739.129C377.869 744.028 375.867 746.028 371.663 748.228C368.46 749.827 365.657 750.128 350.542 750.128L333.225 750.128L328.621 747.228C325.618 745.328 323.416 742.828 321.914 739.929L319.812 735.429L320.012 534.949L320.313 334.368L323.416 330.469C325.017 328.369 328.421 325.669 330.823 324.369C334.927 322.369 336.529 322.169 353.846 322.169C374.265 322.169 377.669 322.969 382.974 328.769C384.475 330.369 440.03 413.96 506.495 514.65C572.959 615.341 663.848 752.827 708.492 820.321L789.571 943.009L793.675 940.309C830.01 916.711 868.448 883.115 898.878 848.118C963.641 773.825 1005.38 683.234 1019.4 586.643C1023.5 558.546 1024 550.247 1024 512.151C1024 474.055 1023.5 465.755 1019.4 437.658C991.568 245.577 854.735 84.1925 669.153 24.3984C636.422 13.7994 601.587 6.50014 562.549 2.10057C552.94 1.10067 486.775 0.000775337 478.467 0.800697L478.467 0.800806ZM688.072 310.171C692.877 312.57 696.78 317.17 698.182 321.969C698.983 324.569 699.183 380.164 698.983 505.452L698.682 685.234L666.951 636.639L635.12 588.043L635.12 457.356C635.12 372.865 635.521 325.369 636.121 323.069C637.723 317.47 641.226 313.07 646.031 310.471C650.135 308.371 651.636 308.171 667.352 308.171C682.166 308.171 684.769 308.371 688.072 310.171L688.072 310.171Z" id="Shape" fill="#000000" fill-rule="evenodd" stroke="none" />
      <path d="M784.567 945.207C781.063 947.407 779.962 948.907 783.065 947.207C785.267 945.907 788.871 943.207 788.27 943.107C787.97 943.107 786.268 944.107 784.567 945.207L784.567 945.207ZM777.66 949.707C775.858 951.107 775.858 951.207 778.06 950.107C779.261 949.507 780.262 948.807 780.262 948.607C780.262 947.807 779.762 948.007 777.66 949.707L777.66 949.707ZM772.655 952.706C770.853 954.106 770.853 954.206 773.055 953.106C774.257 952.507 775.258 951.807 775.258 951.607C775.258 950.807 774.757 951.007 772.655 952.706L772.655 952.706ZM767.65 955.706C765.848 957.106 765.848 957.206 768.051 956.106C769.252 955.506 770.253 954.806 770.253 954.606C770.253 953.806 769.752 954.006 767.65 955.706L767.65 955.706ZM760.043 959.706C756.239 961.706 756.439 962.505 760.243 960.606C761.945 959.706 763.246 958.806 763.246 958.606C763.246 957.906 763.146 958.006 760.043 959.706L760.043 959.706Z" id="Shape" fill="#000000" fill-rule="evenodd" stroke="none" />
    </g>
  </g>
</svg>