<?xml version="1.0" encoding="utf-8"?>
<svg width="100px" height="100px" viewBox="0 0 100 100" version="1.1" xmlns:xlink="http://www.w3.org/1999/xlink" xmlns="http://www.w3.org/2000/svg">
  <defs>
    <path d="M0 0L100 0L100 100L0 100L0 0Z" id="path_1" />
    <clipPath id="mask_1">
      <use xlink:href="#path_1" />
    </clipPath>
  </defs>
  <g id="reactLogo@2x">
    <path d="M0 0L100 0L100 100L0 100L0 0Z" id="Background" fill="#FFFFFF" fill-opacity="0" fill-rule="evenodd" stroke="none" />
    <g clip-path="url(#mask_1)">
      <path d="M41.5498 49.9331C41.5498 45.3123 45.2957 41.5664 49.9165 41.5664C54.5373 41.5664 58.2831 45.3123 58.2831 49.9331C58.2831 54.5539 54.5373 58.2997 49.9165 58.2997C45.2957 58.2997 41.5498 54.5539 41.5498 49.9331Z" id="Circle" fill="#FFFFFF" fill-opacity="0.8980392" fill-rule="evenodd" stroke="none" />
      <g id="Group" transform="translate(3.0830078 30.933594)">
        <path d="M46.8333 38.1667C35.0833 38.1667 24.8167 36.7833 17.1333 34.15C12.15 32.45 7.91667 30.1833 4.9 27.6C1.7 24.8667 0 21.8833 0 19C0 13.4667 6.06667 8.05 16.25 4.51667C24.5833 1.61667 35.45 0 46.8167 0C57.9833 0 68.7 1.56667 76.9833 4.43333C81.8333 6.1 85.9167 8.26667 88.8167 10.6667C91.9667 13.3 93.6333 16.1833 93.6333 19C93.6333 24.75 86.85 30.5667 75.9167 34.1833C68.1833 36.75 57.85 38.1667 46.8333 38.1667L46.8333 38.1667ZM46.8333 4C36.05 4 25.3833 5.56667 17.5833 8.28333C8.21667 11.55 4.01667 16.0167 4.01667 19C4.01667 22.1 8.53333 26.9833 18.4333 30.3667C25.7 32.85 35.5333 34.1667 46.8333 34.1667C57.4333 34.1667 67.3167 32.8333 74.6667 30.3833C84.95 26.9667 89.65 22.0833 89.65 19C89.65 17.4167 88.45 15.55 86.2667 13.7333C83.75 11.6333 80.0833 9.71666 75.7 8.2C67.8167 5.5 57.5667 4 46.8333 4L46.8333 4Z" id="Shape" fill="#FFFFFF" fill-opacity="0.8980392" fill-rule="evenodd" stroke="none" />
      </g>
      <g id="Group" transform="translate(21.19336 8.369141)">
        <path d="M9.74012 83.2646C8.04012 83.2646 6.54012 82.8979 5.27345 82.1646C0.49012 79.3979 -1.17655 71.4313 0.840118 60.8479C2.49012 52.1646 6.52345 41.9646 12.2068 32.1146C17.7901 22.4479 24.4901 13.9479 31.1068 8.19793C34.9735 4.83126 38.8901 2.36459 42.4235 1.06459C46.2735 -0.352075 49.6068 -0.352075 52.0401 1.04793C57.0235 3.91459 58.6735 12.7146 56.3401 23.9813C54.6901 31.9813 50.7568 41.6313 45.2568 51.1813C39.3901 61.3479 33.0568 69.5479 26.9401 74.8979C22.9735 78.3646 18.8901 80.8979 15.1568 82.2146C13.2068 82.9146 11.3735 83.2646 9.74012 83.2646L9.74012 83.2646ZM13.9235 33.1146L15.6568 34.1146C10.2735 43.4479 6.29012 53.4646 4.75678 61.5979C2.90678 71.3479 4.69012 77.2146 7.25678 78.6979C7.89012 79.0646 8.72345 79.2646 9.74012 79.2646C13.0568 79.2646 18.2734 77.1646 24.3068 71.8979C30.0901 66.8479 36.1401 58.9813 41.7901 49.1979C47.0901 40.0146 50.8568 30.7812 52.4234 23.1979C54.6068 12.5812 52.7234 6.08125 50.0401 4.53125C48.6734 3.74792 46.4568 3.84792 43.7901 4.83125C40.7068 5.96458 37.2234 8.18125 33.7234 11.2312C27.4401 16.6979 21.0234 24.8313 15.6568 34.1312L13.9235 33.1146L13.9235 33.1146Z" id="Shape" fill="#FFFFFF" fill-opacity="0.8980392" fill-rule="evenodd" stroke="none" />
      </g>
      <g id="Group" transform="translate(21.213867 8.449219)">
        <path d="M47.686 83.234C43.1527 83.234 37.4027 80.5006 31.4027 75.334C24.7027 69.5673 17.886 60.984 12.186 51.134L12.186 51.134C6.58601 41.4673 2.58601 31.4173 0.902678 22.8007C-0.0806561 17.7673 -0.263988 13.1507 0.369345 9.43399C1.06935 5.38399 2.71935 2.50065 5.16935 1.08399C10.136 -1.79935 18.586 1.16732 27.186 8.81732C33.286 14.234 39.686 22.4673 45.2027 32.0007C51.086 42.1673 55.036 51.7507 56.6027 59.7173C57.6194 64.884 57.786 69.684 57.0694 73.584C56.3027 77.734 54.5694 80.684 52.0694 82.134C50.8194 82.8673 49.336 83.234 47.686 83.234L47.686 83.234ZM15.6527 49.134C21.0527 58.4673 27.7527 66.9173 34.0193 72.3007C41.536 78.7673 47.5027 80.1673 50.086 78.6673C52.7693 77.1173 54.736 70.7673 52.7027 60.5007C51.2027 52.9673 47.4193 43.8007 41.7527 34.0173C36.436 24.834 30.3193 16.9507 24.536 11.8173C16.436 4.61732 9.86934 3.00065 7.18601 4.55065C5.81934 5.33398 4.80268 7.31732 4.31934 10.1173C3.76934 13.3507 3.93601 17.484 4.83601 22.034C6.43601 30.2173 10.2693 39.834 15.6527 49.134L15.6527 49.134L15.6527 49.134Z" id="Shape" fill="#FFFFFF" fill-opacity="0.8980392" fill-rule="evenodd" stroke="none" />
      </g>
    </g>
  </g>
</svg>