<?xml version="1.0" encoding="utf-8"?>
<svg width="2500px" height="308px" viewBox="0 0 2500 308" version="1.1" xmlns:xlink="http://www.w3.org/1999/xlink" xmlns="http://www.w3.org/2000/svg">
  <defs>
    <filter id="filter_1">
      <feColorMatrix in="SourceGraphic" type="matrix" values="0 0 0 0 1 0 0 0 0 1 0 0 0 0 1 0 0 0 0.8980392 0" color-interpolation-filters="sRGB" />
    </filter>
    <path d="M0 0L2500 0L2500 308L0 308L0 0Z" id="path_1" />
    <clipPath id="mask_1">
      <use xlink:href="#path_1" />
    </clipPath>
  </defs>
  <g id="tailwindcssLogo" filter="url(#filter_1)">
    <path d="M0 0L2500 0L2500 308L0 308L0 0Z" id="Background" fill="#FFFFFF" fill-opacity="0" fill-rule="evenodd" stroke="none" />
    <g clip-path="url(#mask_1)">
      <path d="M774.818 129.788L729.745 129.788L729.745 216.491C729.745 239.61 745.03 239.236 774.818 237.801L774.818 272.837C714.491 280.076 690.485 263.446 690.485 216.491L690.485 129.788L657.039 129.788L657.039 92.1932L690.485 92.1932L690.485 43.6783L729.745 32.1345L729.745 92.1932L774.818 92.1932L774.818 129.788ZM946.674 92.1932L985.934 92.1932L985.934 272.837L946.674 272.837L946.674 246.817C932.858 265.974 911.384 277.549 883.033 277.549C833.614 277.549 792.542 235.991 792.542 182.515C792.542 128.696 833.614 87.5133 883.033 87.5133C911.384 87.5133 932.858 99.0571 946.674 117.839L946.674 92.1932ZM889.222 240.328C921.949 240.328 946.674 216.117 946.674 182.515C946.674 148.914 921.949 124.703 889.222 124.703C856.495 124.703 831.801 148.914 831.801 182.515C831.801 216.117 856.495 240.328 889.222 240.328L889.222 240.328ZM1051.36 65.1122C1037.54 65.1122 1026.26 53.5372 1026.26 40.1839C1026.29 36.908 1026.94 33.6632 1028.19 30.6369C1030.75 24.5256 1035.63 19.677 1041.76 17.1588C1044.79 15.9108 1048.07 15.2556 1051.36 15.2556C1054.64 15.2556 1057.89 15.9108 1060.95 17.1588C1063.98 18.4068 1066.74 20.2475 1069.08 22.5563C1071.39 24.8962 1073.24 27.6418 1074.52 30.6369C1075.77 33.6632 1076.43 36.908 1076.43 40.1839C1076.43 53.5372 1065.17 65.1122 1051.36 65.1122L1051.36 65.1122ZM1031.73 272.837L1031.73 92.1932L1070.99 92.1932L1070.99 272.837L1031.73 272.837ZM1116.44 272.837L1116.44 9.10938L1155.69 9.10938L1155.69 272.837L1116.44 272.837ZM1410.51 92.1932L1451.96 92.1932L1394.88 272.837L1356.34 272.837L1318.55 151.098L1280.38 272.837L1241.84 272.837L1184.76 92.1932L1226.21 92.1932L1261.47 216.835L1299.64 92.1932L1337.08 92.1932L1374.87 216.835L1410.51 92.1932ZM1500.66 65.1122C1486.84 65.1122 1475.59 53.5372 1475.59 40.1839C1475.59 36.908 1476.24 33.6633 1477.49 30.6369C1478.78 27.6418 1480.62 24.8962 1482.93 22.5563C1485.28 20.2475 1488.03 18.4068 1491.06 17.1588C1494.12 15.9108 1497.37 15.2556 1500.66 15.2556C1507.3 15.2572 1513.67 17.8818 1518.38 22.5563C1520.72 24.8962 1522.57 27.6418 1523.82 30.6369C1525.1 33.6633 1525.76 36.908 1525.76 40.1839C1525.76 53.5372 1514.47 65.1122 1500.66 65.1122L1500.66 65.1122ZM1481.03 272.837L1481.03 92.1932L1520.29 92.1932L1520.29 272.837L1481.03 272.837ZM1731.15 161.924L1731.15 272.837L1691.89 272.837L1691.89 165.917C1691.89 138.431 1675.89 123.985 1651.16 123.985C1625.34 123.985 1604.99 139.179 1604.99 176.026L1604.99 272.837L1565.73 272.837L1565.73 92.1932L1604.99 92.1932L1604.99 115.312C1617 96.5299 1636.63 87.5133 1661.35 87.5133C1702.05 87.5133 1731.15 114.969 1731.15 161.924L1731.15 161.924ZM1917.26 19.9356L1956.52 19.9356L1956.52 272.837L1917.26 272.837L1917.26 246.817C1903.44 265.974 1882 277.549 1853.65 277.549C1804.2 277.549 1763.13 235.991 1763.13 182.515C1763.13 128.697 1804.2 87.5133 1853.65 87.5133C1882 87.5133 1903.44 99.0571 1917.26 117.839L1917.26 19.9356ZM1859.84 240.328C1892.54 240.328 1917.26 216.117 1917.26 182.515C1917.26 148.914 1892.54 124.703 1859.84 124.703C1827.11 124.703 1802.39 148.914 1802.39 182.515C1802.39 216.117 1827.11 240.328 1859.84 240.328L1859.84 240.328ZM1992.15 182.515C1992.15 128.696 2033.23 87.5133 2088.12 87.5133C2123.75 87.5133 2154.63 105.921 2169.17 134.125L2135.38 153.625C2127.38 136.652 2109.56 125.795 2087.74 125.795C2055.76 125.795 2031.41 150.006 2031.41 182.515C2031.41 215.025 2055.76 239.236 2087.74 239.236C2109.56 239.236 2127.38 228.035 2136.1 211.437L2169.92 230.562C2154.63 259.11 2123.75 277.549 2088.12 277.549C2033.23 277.549 1992.15 235.991 1992.15 182.515L1992.15 182.515ZM2332.4 221.889C2332.4 258.018 2300.76 277.549 2261.5 277.549C2225.15 277.549 2198.99 261.263 2187.36 235.273L2221.15 215.743C2226.99 232.029 2241.53 241.763 2261.5 241.763C2278.98 241.763 2292.42 235.991 2292.42 221.546C2292.42 189.379 2194.64 207.444 2194.64 142.767C2194.64 108.823 2224.09 87.5134 2261.16 87.5134C2290.95 87.5134 2315.67 101.241 2328.39 125.077L2295.32 143.516C2288.79 129.414 2276.07 122.925 2261.16 122.925C2246.97 122.925 2234.62 129.04 2234.62 142.05C2234.62 174.934 2332.4 155.06 2332.4 221.889L2332.4 221.889ZM2500 221.889C2500 258.018 2468.37 277.549 2429.11 277.549C2392.75 277.549 2366.56 261.263 2354.93 235.273L2388.75 215.743C2394.57 232.029 2409.1 241.763 2429.11 241.763C2446.55 241.763 2459.99 235.991 2459.99 221.546C2459.99 189.379 2362.22 207.444 2362.22 142.767C2362.22 108.823 2391.66 87.5134 2428.73 87.5134C2458.55 87.5134 2483.28 101.241 2496 125.077L2462.9 143.516C2456.36 129.414 2443.64 122.925 2428.73 122.925C2414.57 122.925 2402.19 129.04 2402.19 142.05C2402.19 174.934 2500 155.06 2500 221.889L2500 221.889Z" id="Shape" fill="#FFFFFF" fill-opacity="0.8980392" fill-rule="evenodd" stroke="none" />
      <path d="M258.283 0C189.422 0 146.349 34.2257 129.126 102.677C154.976 68.4514 185.109 55.5972 219.555 64.1459C239.185 69.0442 253.22 83.2087 268.786 98.9019C294.105 124.423 323.425 154 387.441 154C456.302 154 499.344 119.774 516.567 51.3229C490.748 85.5486 460.615 98.3716 426.169 89.8229C406.539 84.9558 392.473 70.7601 376.938 55.0981C351.619 29.5458 322.299 8.9407e-07 258.283 8.9407e-07L258.283 0ZM129.126 154C60.2651 154 17.2231 188.226 -4.76837e-07 256.677C25.819 222.451 55.9515 209.628 90.3976 218.177C110.059 223.044 124.094 237.24 139.629 252.902C164.947 278.454 194.267 308 258.283 308C327.176 308 370.218 273.774 387.441 205.323C361.59 239.549 331.458 252.403 297.043 243.854C277.382 238.956 263.347 224.791 247.781 209.098C222.462 183.577 193.142 154 129.126 154L129.126 154Z" id="Shape" fill="#FFFFFF" fill-opacity="0.8980392" fill-rule="evenodd" stroke="none" />
    </g>
  </g>
</svg>