<?xml version="1.0" encoding="utf-8"?>
<svg width="500px" height="500px" viewBox="0 0 500 500" version="1.1" xmlns:xlink="http://www.w3.org/1999/xlink" xmlns="http://www.w3.org/2000/svg">
  <defs>
    <filter filterUnits="userSpaceOnUse" color-interpolation-filters="sRGB" id="filter_1">
      <feFlood flood-opacity="0" result="BackgroundImageFix" />
      <feColorMatrix in="SourceAlpha" type="matrix" values="0 0 0 0 0 0 0 0 0 0 0 0 0 0 0 0 0 0 127 0" />
      <feOffset dx="0" dy="2" />
      <feGaussianBlur stdDeviation="2" />
      <feColorMatrix type="matrix" values="0 0 0 0 0.39215687 0 0 0 0 0.39215687 0 0 0 0 0.39215687 0 0 0 0.49803922 0" />
      <feBlend mode="normal" in2="BackgroundImageFix" result="effect0_dropShadow" />
      <feBlend mode="normal" in="SourceGraphic" in2="effect0_dropShadow" result="shape" />
    </filter>
    <path d="M39.999 0L460.001 0Q460.983 0 461.964 0.0481805Q462.944 0.0963611 463.922 0.192606Q464.899 0.288851 465.87 0.432929Q466.841 0.577006 467.804 0.768569Q468.767 0.960133 469.72 1.19872Q470.672 1.43731 471.612 1.72234Q472.552 2.00738 473.476 2.33818Q474.401 2.66898 475.308 3.04474Q476.215 3.42051 477.103 3.84033Q477.99 4.26016 478.856 4.72303Q479.722 5.1859 480.565 5.69071Q481.407 6.19552 482.223 6.74105Q483.04 7.28657 483.828 7.8715Q484.617 8.45643 485.376 9.07935Q486.135 9.70228 486.863 10.3617Q487.59 11.0211 488.285 11.7154Q488.979 12.4098 489.638 13.1373Q490.298 13.8649 490.921 14.6239Q491.544 15.3829 492.128 16.1716Q492.713 16.9603 493.259 17.7767Q493.804 18.5932 494.309 19.4354Q494.814 20.2776 495.277 21.1436Q495.74 22.0096 496.16 22.8972Q496.579 23.7849 496.955 24.692Q497.331 25.5992 497.662 26.5237Q497.993 27.4483 498.278 28.3879Q498.563 29.3275 498.801 30.28Q499.04 31.2325 499.231 32.1956Q499.423 33.1586 499.567 34.1299Q499.711 35.1012 499.807 36.0784Q499.904 37.0556 499.952 38.0363Q500 39.0171 500 39.999L500 460.001Q500 460.983 499.952 461.964Q499.904 462.944 499.807 463.922Q499.711 464.899 499.567 465.87Q499.423 466.841 499.231 467.804Q499.04 468.767 498.801 469.72Q498.563 470.672 498.278 471.612Q497.993 472.552 497.662 473.476Q497.331 474.401 496.955 475.308Q496.579 476.215 496.16 477.103Q495.74 477.99 495.277 478.856Q494.814 479.722 494.309 480.565Q493.804 481.407 493.259 482.223Q492.713 483.04 492.128 483.828Q491.543 484.617 490.921 485.376Q490.298 486.135 489.638 486.863Q488.979 487.59 488.285 488.285Q487.59 488.979 486.863 489.638Q486.135 490.298 485.376 490.921Q484.617 491.544 483.828 492.128Q483.04 492.713 482.223 493.259Q481.407 493.804 480.565 494.309Q479.722 494.814 478.856 495.277Q477.99 495.74 477.103 496.16Q476.215 496.579 475.308 496.955Q474.401 497.331 473.476 497.662Q472.552 497.993 471.612 498.278Q470.672 498.563 469.72 498.801Q468.767 499.04 467.804 499.231Q466.841 499.423 465.87 499.567Q464.899 499.711 463.922 499.807Q462.944 499.904 461.964 499.952Q460.983 500 460.001 500L39.999 500Q39.0171 500 38.0363 499.952Q37.0556 499.904 36.0784 499.807Q35.1012 499.711 34.1299 499.567Q33.1586 499.423 32.1956 499.231Q31.2325 499.04 30.28 498.801Q29.3275 498.563 28.3879 498.278Q27.4483 497.993 26.5237 497.662Q25.5992 497.331 24.692 496.955Q23.7849 496.579 22.8972 496.16Q22.0096 495.74 21.1436 495.277Q20.2776 494.814 19.4354 494.309Q18.5932 493.804 17.7767 493.259Q16.9603 492.713 16.1716 492.128Q15.3829 491.543 14.6239 490.921Q13.8649 490.298 13.1373 489.638Q12.4098 488.979 11.7154 488.285Q11.0211 487.59 10.3617 486.863Q9.70228 486.135 9.07935 485.376Q8.45643 484.617 7.8715 483.828Q7.28657 483.04 6.74105 482.223Q6.19552 481.407 5.69071 480.565Q5.1859 479.722 4.72303 478.856Q4.26016 477.99 3.84033 477.103Q3.42051 476.215 3.04474 475.308Q2.66898 474.401 2.33818 473.476Q2.00738 472.552 1.72234 471.612Q1.43731 470.672 1.19872 469.72Q0.960133 468.767 0.768569 467.804Q0.577006 466.841 0.432929 465.87Q0.288851 464.899 0.192606 463.922Q0.0963611 462.944 0.0481805 461.964Q0 460.983 0 460.001L0 39.999Q0 39.0171 0.0481805 38.0363Q0.0963611 37.0556 0.192606 36.0784Q0.288851 35.1012 0.432929 34.1299Q0.577006 33.1586 0.768569 32.1956Q0.960133 31.2325 1.19872 30.28Q1.43731 29.3275 1.72234 28.3879Q2.00738 27.4483 2.33818 26.5237Q2.66898 25.5992 3.04474 24.692Q3.42051 23.7849 3.84033 22.8972Q4.26016 22.0096 4.72303 21.1436Q5.1859 20.2776 5.69071 19.4354Q6.19552 18.5932 6.74105 17.7767Q7.28657 16.9603 7.8715 16.1716Q8.45643 15.3829 9.07935 14.6239Q9.70228 13.8649 10.3617 13.1373Q11.0211 12.4098 11.7154 11.7154Q12.4098 11.0211 13.1373 10.3617Q13.8649 9.70228 14.6239 9.07935Q15.3829 8.45643 16.1716 7.8715Q16.9603 7.28657 17.7767 6.74105Q18.5932 6.19552 19.4354 5.69071Q20.2776 5.1859 21.1436 4.72303Q22.0096 4.26016 22.8972 3.84033Q23.7849 3.42051 24.692 3.04474Q25.5992 2.66898 26.5237 2.33818Q27.4483 2.00738 28.3879 1.72234Q29.3275 1.43731 30.28 1.19872Q31.2325 0.960133 32.1956 0.768569Q33.1586 0.577006 34.1299 0.432929Q35.1012 0.288851 36.0784 0.192606Q37.0556 0.0963611 38.0363 0.0481805Q39.0171 0 39.999 0Z" id="path_1" />
    <clipPath id="mask_1">
      <use xlink:href="#path_1" />
    </clipPath>
  </defs>
  <g id="Rectangle-25-+-Group-11-Mask">
    <path d="M39.999 0L460.001 0Q460.983 0 461.964 0.0481805Q462.944 0.0963611 463.922 0.192606Q464.899 0.288851 465.87 0.432929Q466.841 0.577006 467.804 0.768569Q468.767 0.960133 469.72 1.19872Q470.672 1.43731 471.612 1.72234Q472.552 2.00738 473.476 2.33818Q474.401 2.66898 475.308 3.04474Q476.215 3.42051 477.103 3.84033Q477.99 4.26016 478.856 4.72303Q479.722 5.1859 480.565 5.69071Q481.407 6.19552 482.223 6.74105Q483.04 7.28657 483.828 7.8715Q484.617 8.45643 485.376 9.07935Q486.135 9.70228 486.863 10.3617Q487.59 11.0211 488.285 11.7154Q488.979 12.4098 489.638 13.1373Q490.298 13.8649 490.921 14.6239Q491.544 15.3829 492.128 16.1716Q492.713 16.9603 493.259 17.7767Q493.804 18.5932 494.309 19.4354Q494.814 20.2776 495.277 21.1436Q495.74 22.0096 496.16 22.8972Q496.579 23.7849 496.955 24.692Q497.331 25.5992 497.662 26.5237Q497.993 27.4483 498.278 28.3879Q498.563 29.3275 498.801 30.28Q499.04 31.2325 499.231 32.1956Q499.423 33.1586 499.567 34.1299Q499.711 35.1012 499.807 36.0784Q499.904 37.0556 499.952 38.0363Q500 39.0171 500 39.999L500 460.001Q500 460.983 499.952 461.964Q499.904 462.944 499.807 463.922Q499.711 464.899 499.567 465.87Q499.423 466.841 499.231 467.804Q499.04 468.767 498.801 469.72Q498.563 470.672 498.278 471.612Q497.993 472.552 497.662 473.476Q497.331 474.401 496.955 475.308Q496.579 476.215 496.16 477.103Q495.74 477.99 495.277 478.856Q494.814 479.722 494.309 480.565Q493.804 481.407 493.259 482.223Q492.713 483.04 492.128 483.828Q491.543 484.617 490.921 485.376Q490.298 486.135 489.638 486.863Q488.979 487.59 488.285 488.285Q487.59 488.979 486.863 489.638Q486.135 490.298 485.376 490.921Q484.617 491.544 483.828 492.128Q483.04 492.713 482.223 493.259Q481.407 493.804 480.565 494.309Q479.722 494.814 478.856 495.277Q477.99 495.74 477.103 496.16Q476.215 496.579 475.308 496.955Q474.401 497.331 473.476 497.662Q472.552 497.993 471.612 498.278Q470.672 498.563 469.72 498.801Q468.767 499.04 467.804 499.231Q466.841 499.423 465.87 499.567Q464.899 499.711 463.922 499.807Q462.944 499.904 461.964 499.952Q460.983 500 460.001 500L39.999 500Q39.0171 500 38.0363 499.952Q37.0556 499.904 36.0784 499.807Q35.1012 499.711 34.1299 499.567Q33.1586 499.423 32.1956 499.231Q31.2325 499.04 30.28 498.801Q29.3275 498.563 28.3879 498.278Q27.4483 497.993 26.5237 497.662Q25.5992 497.331 24.692 496.955Q23.7849 496.579 22.8972 496.16Q22.0096 495.74 21.1436 495.277Q20.2776 494.814 19.4354 494.309Q18.5932 493.804 17.7767 493.259Q16.9603 492.713 16.1716 492.128Q15.3829 491.543 14.6239 490.921Q13.8649 490.298 13.1373 489.638Q12.4098 488.979 11.7154 488.285Q11.0211 487.59 10.3617 486.863Q9.70228 486.135 9.07935 485.376Q8.45643 484.617 7.8715 483.828Q7.28657 483.04 6.74105 482.223Q6.19552 481.407 5.69071 480.565Q5.1859 479.722 4.72303 478.856Q4.26016 477.99 3.84033 477.103Q3.42051 476.215 3.04474 475.308Q2.66898 474.401 2.33818 473.476Q2.00738 472.552 1.72234 471.612Q1.43731 470.672 1.19872 469.72Q0.960133 468.767 0.768569 467.804Q0.577006 466.841 0.432929 465.87Q0.288851 464.899 0.192606 463.922Q0.0963611 462.944 0.0481805 461.964Q0 460.983 0 460.001L0 39.999Q0 39.0171 0.0481805 38.0363Q0.0963611 37.0556 0.192606 36.0784Q0.288851 35.1012 0.432929 34.1299Q0.577006 33.1586 0.768569 32.1956Q0.960133 31.2325 1.19872 30.28Q1.43731 29.3275 1.72234 28.3879Q2.00738 27.4483 2.33818 26.5237Q2.66898 25.5992 3.04474 24.692Q3.42051 23.7849 3.84033 22.8972Q4.26016 22.0096 4.72303 21.1436Q5.1859 20.2776 5.69071 19.4354Q6.19552 18.5932 6.74105 17.7767Q7.28657 16.9603 7.8715 16.1716Q8.45643 15.3829 9.07935 14.6239Q9.70228 13.8649 10.3617 13.1373Q11.0211 12.4098 11.7154 11.7154Q12.4098 11.0211 13.1373 10.3617Q13.8649 9.70228 14.6239 9.07935Q15.3829 8.45643 16.1716 7.8715Q16.9603 7.28657 17.7767 6.74105Q18.5932 6.19552 19.4354 5.69071Q20.2776 5.1859 21.1436 4.72303Q22.0096 4.26016 22.8972 3.84033Q23.7849 3.42051 24.692 3.04474Q25.5992 2.66898 26.5237 2.33818Q27.4483 2.00738 28.3879 1.72234Q29.3275 1.43731 30.28 1.19872Q31.2325 0.960133 32.1956 0.768569Q33.1586 0.577006 34.1299 0.432929Q35.1012 0.288851 36.0784 0.192606Q37.0556 0.0963611 38.0363 0.0481805Q39.0171 0 39.999 0Z" id="Mask" fill="#985EFF" fill-rule="evenodd" stroke="none" />
    <g clip-path="url(#mask_1)">
      <path d="M225.5 357L500 214L500 500L-49 500L225.5 357Z" id="Rectangle-25" fill="#7F39FB" fill-rule="evenodd" stroke="none" />
      <g filter="url(#filter_1)">
        <g id="Group-11" transform="translate(122.18262 115)">
          <path d="M127.908 16.1816L127.91 16.1816Q128.326 16.1816 128.742 16.202Q129.157 16.2225 129.571 16.2632Q129.985 16.304 130.397 16.3651Q130.809 16.4261 131.217 16.5073Q131.625 16.5885 132.029 16.6896Q132.432 16.7907 132.83 16.9115Q133.229 17.0323 133.62 17.1725Q134.012 17.3127 134.397 17.4719Q134.781 17.6312 135.157 17.8091Q135.533 17.987 135.9 18.1831Q136.267 18.3793 136.624 18.5932Q136.981 18.8072 137.327 19.0383Q137.673 19.2695 138.007 19.5174Q138.342 19.7653 138.663 20.0293Q138.985 20.2933 139.293 20.5727Q139.602 20.8522 139.896 21.1464Q140.19 21.4406 140.47 21.749Q140.749 22.0573 141.013 22.379Q141.277 22.7006 141.525 23.0349Q141.773 23.3691 142.004 23.7151Q142.235 24.0611 142.449 24.418Q142.663 24.7749 142.859 25.1419Q143.055 25.5089 143.233 25.885Q143.411 26.2612 143.57 26.6457Q143.73 27.0301 143.87 27.4219Q144.01 27.8137 144.131 28.2119Q144.252 28.6101 144.353 29.0137Q144.454 29.4174 144.535 29.8255Q144.616 30.2336 144.677 30.6453Q144.738 31.0569 144.779 31.471Q144.82 31.8851 144.84 32.3007Q144.861 32.7163 144.861 33.1325L144.861 255.05Q144.861 255.466 144.84 255.881Q144.82 256.297 144.779 256.711Q144.738 257.125 144.677 257.537Q144.616 257.948 144.535 258.356Q144.454 258.765 144.353 259.168Q144.252 259.572 144.131 259.97Q144.01 260.368 143.87 260.76Q143.73 261.152 143.57 261.536Q143.411 261.921 143.233 262.297Q143.055 262.673 142.859 263.04Q142.663 263.407 142.449 263.764Q142.235 264.121 142.004 264.467Q141.773 264.813 141.525 265.147Q141.277 265.481 141.013 265.803Q140.749 266.125 140.47 266.433Q140.19 266.741 139.896 267.036Q139.602 267.33 139.293 267.609Q138.985 267.889 138.663 268.153Q138.342 268.417 138.007 268.665Q137.673 268.912 137.327 269.144Q136.981 269.375 136.624 269.589Q136.267 269.803 135.9 269.999Q135.533 270.195 135.157 270.373Q134.781 270.551 134.397 270.71Q134.012 270.869 133.62 271.009Q133.229 271.15 132.83 271.27Q132.432 271.391 132.029 271.492Q131.625 271.594 131.217 271.675Q130.809 271.756 130.397 271.817Q129.985 271.878 129.571 271.919Q129.157 271.96 128.742 271.98Q128.326 272 127.91 272L127.908 272Q127.492 272 127.076 271.98Q126.661 271.96 126.246 271.919Q125.832 271.878 125.421 271.817Q125.009 271.756 124.601 271.675Q124.193 271.594 123.789 271.492Q123.386 271.391 122.987 271.27Q122.589 271.15 122.197 271.009Q121.806 270.869 121.421 270.71Q121.037 270.551 120.66 270.373Q120.284 270.195 119.917 269.999Q119.55 269.803 119.193 269.589Q118.836 269.375 118.49 269.144Q118.145 268.912 117.81 268.665Q117.476 268.417 117.154 268.153Q116.833 267.889 116.524 267.609Q116.216 267.33 115.922 267.036Q115.628 266.741 115.348 266.433Q115.069 266.125 114.805 265.803Q114.541 265.481 114.293 265.147Q114.045 264.813 113.814 264.467Q113.583 264.121 113.369 263.764Q113.155 263.407 112.959 263.04Q112.762 262.673 112.584 262.297Q112.407 261.921 112.247 261.536Q112.088 261.152 111.948 260.76Q111.808 260.368 111.687 259.97Q111.566 259.572 111.465 259.168Q111.364 258.765 111.283 258.356Q111.202 257.948 111.14 257.537Q111.079 257.125 111.039 256.711Q110.998 256.297 110.977 255.881Q110.957 255.466 110.957 255.05L110.957 33.1325Q110.957 32.7163 110.977 32.3007Q110.998 31.8851 111.039 31.471Q111.079 31.0569 111.14 30.6453Q111.202 30.2336 111.283 29.8255Q111.364 29.4174 111.465 29.0137Q111.566 28.6101 111.687 28.2119Q111.808 27.8137 111.948 27.4219Q112.088 27.0301 112.247 26.6457Q112.407 26.2612 112.584 25.885Q112.762 25.5089 112.959 25.1419Q113.155 24.7749 113.369 24.418Q113.583 24.0611 113.814 23.7151Q114.045 23.3691 114.293 23.0349Q114.541 22.7006 114.805 22.379Q115.069 22.0573 115.348 21.749Q115.628 21.4406 115.922 21.1464Q116.216 20.8522 116.524 20.5727Q116.833 20.2933 117.154 20.0293Q117.476 19.7653 117.81 19.5174Q118.145 19.2695 118.49 19.0383Q118.836 18.8072 119.193 18.5932Q119.55 18.3793 119.917 18.1831Q120.284 17.987 120.66 17.8091Q121.037 17.6312 121.421 17.4719Q121.806 17.3127 122.197 17.1725Q122.589 17.0323 122.987 16.9115Q123.386 16.7907 123.789 16.6896Q124.193 16.5885 124.601 16.5073Q125.009 16.4261 125.421 16.3651Q125.832 16.304 126.246 16.2632Q126.661 16.2225 127.076 16.202Q127.492 16.1816 127.908 16.1816Z" id="Rectangle-26" fill="#FFFFFF" fill-rule="evenodd" stroke="none" />
          <path d="M255.806 16.9521L255.806 16.9501Q255.806 16.534 255.785 16.1184Q255.765 15.7028 255.724 15.2888Q255.683 14.8747 255.622 14.4631Q255.561 14.0515 255.48 13.6434Q255.399 13.2353 255.298 12.8316Q255.197 12.428 255.076 12.0298Q254.955 11.6316 254.815 11.2399Q254.675 10.8481 254.515 10.4637Q254.356 10.0792 254.178 9.70308Q254 9.32693 253.804 8.95997Q253.608 8.593 253.394 8.2361Q253.18 7.8792 252.949 7.53323Q252.718 7.18725 252.47 6.85304Q252.222 6.51882 251.958 6.19718Q251.694 5.87553 251.415 5.56722Q251.135 5.25891 250.841 4.96468Q250.547 4.67045 250.239 4.39102Q249.93 4.11158 249.609 3.84761Q249.287 3.58364 248.953 3.33577Q248.619 3.0879 248.273 2.85673Q247.927 2.62556 247.57 2.41164Q247.213 2.19772 246.846 2.00158Q246.479 1.80543 246.103 1.62752Q245.727 1.44962 245.342 1.29038Q244.958 1.13115 244.566 0.990969Q244.174 0.85079 243.776 0.730002Q243.378 0.609215 242.974 0.508111Q242.571 0.407008 242.162 0.325831Q241.754 0.244654 241.343 0.183599Q240.931 0.122545 240.517 0.08176Q240.103 0.0409752 239.687 0.0205582Q239.272 0.000141144 238.856 0.000141144L16.9497 0.000152588Q16.5336 0.000152588 16.118 0.0205696Q15.7024 0.0409866 15.2883 0.0817715Q14.8742 0.122556 14.4626 0.183611Q14.051 0.244665 13.6429 0.325842Q13.2348 0.407019 12.8312 0.508123Q12.4275 0.609227 12.0294 0.730014Q11.6312 0.850801 11.2394 0.990981Q10.8476 1.13116 10.4632 1.29039Q10.0788 1.44963 9.70263 1.62753Q9.32648 1.80544 8.95952 2.00159Q8.59255 2.19773 8.23565 2.41165Q7.87875 2.62557 7.53278 2.85674Q7.1868 3.08791 6.85259 3.33578Q6.51838 3.58365 6.19673 3.84763Q5.87508 4.1116 5.56677 4.39103Q5.25846 4.67047 4.96423 4.96469Q4.67001 5.25892 4.39057 5.56723Q4.11114 5.87554 3.84717 6.19719Q3.5832 6.51884 3.33533 6.85305Q3.08746 7.18726 2.85628 7.53324Q2.62511 7.87921 2.41119 8.23611Q2.19728 8.59301 2.00113 8.95998Q1.80498 9.32694 1.62708 9.70309Q1.44917 10.0792 1.28994 10.4637Q1.1307 10.8481 0.990523 11.2399Q0.850343 11.6316 0.729556 12.0298Q0.608769 12.428 0.507665 12.8316Q0.406561 13.2353 0.325384 13.6434Q0.244207 14.0515 0.183153 14.4631Q0.122099 14.8747 0.0813137 15.2888Q0.0405288 15.7029 0.0201118 16.1185Q-0.000305176 16.5341 -0.000305176 16.9502L-0.000305176 16.9522Q-0.000305176 17.3682 0.0201118 17.7838Q0.0405288 18.1994 0.0813137 18.6135Q0.122099 19.0276 0.183153 19.4392Q0.244207 19.8508 0.325384 20.2589Q0.406561 20.667 0.507665 21.0707Q0.608769 21.4743 0.729556 21.8725Q0.850343 22.2707 0.990523 22.6624Q1.1307 23.0542 1.28994 23.4386Q1.44917 23.8231 1.62708 24.1992Q1.80498 24.5754 2.00113 24.9423Q2.19728 25.3093 2.41119 25.6662Q2.62511 26.0231 2.85628 26.3691Q3.08746 26.715 3.33533 27.0493Q3.5832 27.3835 3.84717 27.7051Q4.11114 28.0268 4.39057 28.3351Q4.67001 28.6434 4.96423 28.9376Q5.25846 29.2318 5.56677 29.5113Q5.87508 29.7907 6.19673 30.0547Q6.51838 30.3186 6.85259 30.5665Q7.1868 30.8144 7.53278 31.0456Q7.87875 31.2767 8.23565 31.4907Q8.59255 31.7046 8.95952 31.9007Q9.32648 32.0969 9.70263 32.2748Q10.0788 32.4527 10.4632 32.6119Q10.8476 32.7711 11.2394 32.9113Q11.6312 33.0515 12.0294 33.1723Q12.4275 33.2931 12.8312 33.3942Q13.2348 33.4953 13.6429 33.5765Q14.051 33.6576 14.4626 33.7187Q14.8742 33.7798 15.2883 33.8205Q15.7024 33.8613 16.118 33.8817Q16.5336 33.9022 16.9497 33.9022L238.856 33.9021Q239.272 33.9021 239.687 33.8817Q240.103 33.8613 240.517 33.8205Q240.931 33.7797 241.343 33.7187Q241.754 33.6576 242.162 33.5765Q242.571 33.4953 242.974 33.3942Q243.378 33.2931 243.776 33.1723Q244.174 33.0515 244.566 32.9113Q244.958 32.7711 245.342 32.6119Q245.727 32.4527 246.103 32.2748Q246.479 32.0969 246.846 31.9007Q247.213 31.7046 247.57 31.4906Q247.927 31.2767 248.273 31.0455Q248.619 30.8144 248.953 30.5665Q249.287 30.3186 249.609 30.0547Q249.93 29.7907 250.239 29.5113Q250.547 29.2318 250.841 28.9376Q251.135 28.6434 251.415 28.3351Q251.694 28.0268 251.958 27.7051Q252.222 27.3835 252.47 27.0492Q252.718 26.715 252.949 26.3691Q253.18 26.0231 253.394 25.6662Q253.608 25.3093 253.804 24.9423Q254 24.5753 254.178 24.1992Q254.356 23.823 254.515 23.4386Q254.675 23.0542 254.815 22.6624Q254.955 22.2706 255.076 21.8725Q255.197 21.4743 255.298 21.0707Q255.399 20.667 255.48 20.2589Q255.561 19.8508 255.622 19.4392Q255.683 19.0276 255.724 18.6135Q255.765 18.1994 255.785 17.7838Q255.806 17.3682 255.806 16.9521Z" id="Rectangle-26-Copy" fill="#FFFFFF" fill-rule="evenodd" stroke="none" />
        </g>
      </g>
    </g>
  </g>
</svg>